<?xml version="1.0" standalone="no"?>
<!DOCTYPE svg PUBLIC "-//W3C//DTD SVG 20010904//EN"
 "http://www.w3.org/TR/2001/REC-SVG-20010904/DTD/svg10.dtd">
<svg version="1.0" xmlns="http://www.w3.org/2000/svg"
 width="375.000000pt" height="96.000000pt" viewBox="0 0 375.000000 96.000000"
 preserveAspectRatio="xMidYMid meet">

<g transform="translate(0.000000,96.000000) scale(0.100000,-0.100000)"
fill="#000000" stroke="none">
<path d="M1 643 c1 -279 2 -312 14 -271 49 181 242 269 411 189 70 -33 126
-93 148 -159 12 -33 16 -86 16 -193 0 -81 -3 -155 -6 -164 -4 -10 -21 -23 -38
-31 -27 -12 -8 -13 164 -13 176 0 191 1 157 13 -120 43 -199 156 -199 282 -1
187 188 332 364 280 119 -34 218 -156 218 -267 0 -75 -10 -79 -222 -79 -98 0
-178 -4 -178 -8 0 -16 47 -53 76 -61 16 -4 45 -3 64 2 83 21 88 21 121 -12 25
-26 30 -37 24 -59 -9 -40 -37 -63 -92 -78 -42 -11 -13 -13 247 -13 256 0 289
2 248 13 -97 26 -174 102 -203 199 -11 38 -15 106 -15 278 0 125 3 235 6 244
10 25 62 47 95 40 43 -10 59 -40 59 -111 l0 -62 126 -4 c118 -3 127 -4 145
-27 26 -32 24 -77 -6 -106 -23 -24 -30 -25 -145 -25 l-120 0 0 -82 c0 -59 5
-93 18 -118 38 -76 135 -103 203 -57 49 33 65 37 99 26 35 -13 50 -35 50 -78
0 -38 -65 -96 -130 -116 -40 -12 -8 -14 318 -14 l362 -1 0 161 c0 127 3 168
16 195 20 41 70 74 113 74 23 0 42 9 63 30 25 26 29 36 24 63 -11 53 -38 72
-101 71 -104 -3 -202 -71 -248 -173 -18 -39 -22 -72 -25 -213 l-4 -168 -40 23
c-54 29 -115 99 -147 167 -23 49 -26 67 -26 165 0 104 2 113 32 170 68 129
186 206 326 213 43 2 98 -1 124 -7 l45 -12 64 61 c68 65 156 112 240 128 31 6
-476 10 -1403 11 l-1453 1 1 -317z"/>
<path d="M3033 948 l47 -10 0 -189 0 -188 -35 15 c-50 20 -161 18 -212 -5 -60
-28 -132 -98 -159 -156 -31 -66 -33 -170 -3 -235 47 -105 157 -180 265 -180
91 0 150 24 215 89 87 87 89 98 89 460 l0 305 36 -35 c49 -47 90 -112 116
-181 l21 -58 51 0 c125 -2 234 -83 271 -202 12 -38 14 -8 14 270 l1 312 -382
-1 c-281 -1 -370 -4 -335 -11z m-22 -541 c89 -59 86 -172 -4 -227 -61 -38
-144 -14 -179 51 -35 66 -12 146 53 181 45 24 89 23 130 -5z"/>
<path d="M240 423 c-19 -10 -45 -33 -57 -52 -21 -31 -23 -45 -23 -176 0 -134
-1 -143 -22 -162 -13 -11 -30 -23 -38 -26 -8 -3 82 -5 200 -5 118 0 205 3 193
5 -45 9 -53 37 -53 181 0 103 -4 142 -16 168 -33 70 -118 101 -184 67z"/>
<path d="M881 404 c-17 -14 -31 -30 -31 -35 0 -5 50 -9 110 -9 61 0 110 4 110
9 0 5 -14 21 -31 35 -43 37 -115 37 -158 0z"/>
<path d="M3732 194 c-17 -64 -110 -157 -178 -178 l-49 -15 123 0 122 -1 0 120
c0 66 -1 120 -3 120 -2 0 -8 -21 -15 -46z"/>
<path d="M0 31 c0 -30 1 -31 43 -30 23 1 32 4 20 6 -13 2 -32 16 -43 30 l-20
26 0 -32z"/>
</g>
</svg>
